<svg xmlns="http://www.w3.org/2000/svg" version="1.1" xmlns:xlink="http://www.w3.org/1999/xlink" width="1000" height="1000"><metadata><rdf:RDF xmlns:rdf="http://www.w3.org/1999/02/22-rdf-syntax-ns#" xmlns:dc="http://purl.org/dc/elements/1.1/"><rdf:Description><dc:creator>RealFaviconGenerator</dc:creator><dc:source>https://realfavicongenerator.net</dc:source></rdf:Description></rdf:RDF></metadata><g clip-path="url(#SvgjsClipPath1153)"><rect width="1000" height="1000" fill="#ffffff"></rect><g transform="matrix(0.839375085249032,0,0,0.839375085249032,100,385.0853539539813)"><svg xmlns="http://www.w3.org/2000/svg" id="Layer_1" data-name="Layer 1" viewBox="0 0 953.09 273.81" width="953.09" height="273.81"><defs>
    <style>
      .cls-1, .cls-2, .cls-3, .cls-4, .cls-5 {
        stroke-width: 0px;
      }

      .cls-1, .cls-6 {
        fill: #001e40;
      }

      .cls-2 {
         fill: #001e40;
      }

      .cls-3 {
           fill: #001e40;
      }

      .cls-4 {
         fill: #001e40;
      }

      .cls-5 {
         fill: #001e40;
      }

      .cls-6 {
        font-family: Aileron-Light, 'Aileron Light';
        font-size: 48.1px;
        font-weight: 300;
      }
    </style>
  <clipPath id="SvgjsClipPath1153"><rect width="1000" height="1000" x="0" y="0" rx="500" ry="500"></rect></clipPath></defs><path class="cls-2" d="M175.22,252.81c-13.96-.35-27.68-2.88-41.34-5.6-32.23-6.43-63.73-14.99-91.97-32.67-7.51-4.7-14.53-10.03-20.74-16.38-23.84-24.41-27.77-53.76-10.66-83.3,15.23-26.3,38.71-43.75,64.65-58.17C120.55,31.46,169.88,18.76,220.95,11.72c20.59-2.84,41.31-4.07,62.01-5.39,4.57-.29,8.4-1.41,12.29-3.92,6.71-4.33,14.74-2.59,19.51,3.47,4.64,5.91,4.4,13.71-.6,19.29-4.95,5.53-12.83,7.08-19.01,2.63-4.37-3.15-8.75-3.97-13.8-3.87-45.85.88-91.24,5.5-135.53,17.86-35.5,9.91-69.38,23.51-98.67,46.64-8.79,6.94-16.75,14.75-23.52,23.72-22.98,30.44-19.09,63.7,10.15,88.25,22.01,18.49,48.18,28.33,75.18,36.4,17.94,5.36,36.41,8.41,54.85,11.5,3.97.66,7.9,1.55,11.85,2.34-.15.73-.3,1.46-.44,2.19Z"></path><path class="cls-4" d="M189.13,245.92c-8.49,2.81-14.82.62-20.98-.34-28.02-4.35-55.64-10.33-81.67-22.11-12.39-5.61-23.99-12.49-33.93-21.79-25.68-24.02-28.41-54.76-7.77-83.22,14.86-20.47,34.77-34.74,56.83-46.32,37.26-19.55,77.33-29.82,118.76-35.46,33.04-4.5,66.23-5.04,99.48-3.51,3.56.16,6.46-.55,9.56-2.24,7.34-4.01,14.89-2.4,19.44,3.66,4.82,6.42,4.26,14.3-1.38,19.76-5.45,5.27-13.33,5.73-19.86.79-2.75-2.08-5.4-4.09-8.92-4.36-65.91-5.01-130.81-1.04-193.21,22.98-26.15,10.07-50.3,23.54-69.25,44.93-23.52,26.53-22.41,56.43,3.56,80.42,18.62,17.2,41.72,25.84,65.44,33.13,17.92,5.51,36.38,8.49,54.81,11.59,2.43.41,4.82,1.09,9.1,2.09Z"></path><path class="cls-5" d="M186.2,234.82c-13.05,2.15-25.65-.5-38.18-3.27-24.48-5.41-48.28-12.62-68.37-28.57-23.94-19.01-27.83-47.83-9.6-72.45,16.61-22.44,39.61-36.42,64.72-47.12,35.46-15.11,72.82-22.29,111.14-25.08,7.9-.58,15.7-.95,22.95-5.77,6.08-4.04,12.68-1.62,17.4,3.9,4.54,5.3,5.01,11.43,1.34,17.33-3.61,5.8-10.09,10.09-15.78,6.54-13.33-8.31-27.15-4.86-40.81-4.01-40.27,2.53-79.21,10.74-115.26,29.7-13.87,7.29-26.52,16.21-36.63,28.5-17.83,21.67-15.24,47.47,6.91,64.94,19,14.98,41.21,22.78,64.43,28.08,11.85,2.7,23.82,4.87,35.73,7.29Z"></path><g>
    <path class="cls-3" d="M324.37,125.81c-28.29,0-44.91,18.22-44.91,44.75,0,1.11.04,2.2.1,3.28-1.83-10.33-8.43-17.14-20.24-20.22,11.03-3.84,16.78-11.51,16.78-22.22,0-14.71-10.23-25.57-28.13-27.81-5.59-.64-8.47-.64-14.23-.64h-42.04v110.29h41.88c6.55,0,10.23,0,15.66-.64,14.86-1.92,30.85-11.99,30.85-32.45,0-.4-.03-.79-.04-1.18,3.19,21.92,19.12,36.51,44.31,36.51,28.13,0,44.92-18.38,44.92-44.92s-16.78-44.75-44.92-44.75ZM216.8,122.46h14.54c2.56,0,5.43.16,7.67.48,6.55.96,10.87,4.48,10.87,11.83s-3.84,11.03-10.71,12.15c-2.24.32-4.79.48-7.35.48h-15.02v-24.93ZM241.57,193.42c-2.08.16-4.64.16-7.19.16h-17.58v-27.81h16.62c2.56,0,5.11,0,7.67.32,7.03.64,12.79,4.8,12.79,13.75,0,8.31-5.75,13.11-12.31,13.59ZM324.37,198.22c-11.99,0-19.18-9.91-19.18-27.65s7.19-27.49,19.18-27.49,19.02,9.75,19.02,27.49-7.19,27.65-19.02,27.65Z"></path>
    <path class="cls-3" d="M425.07,125.81c-7.99,0-14.07,1.6-19.82,5.43l-7.03,10.23v-13.43h-25.1v85.19h25.1v-39.48c0-21.74,7.35-30.69,17.26-30.69s14.54,5.43,15.18,14.07c.32,4.32.32,8.63.32,11.83v44.28h25.09v-48.11c0-6.87-.16-11.51-.8-15.83-1.92-14.86-12.31-23.5-30.21-23.5Z"></path>
    <polygon class="cls-3" points="551.5 128.05 521.77 128.05 489.48 165.45 489.48 95.76 464.39 95.76 464.39 213.24 489.48 213.24 489.48 187.83 496.03 180.64 520.81 213.24 551.98 213.24 514.57 167.37 551.5 128.05"></polygon>
    <path class="cls-3" d="M590.34,125.81c-27.01,0-44.12,19.5-44.12,45.07,0,30.05,18.7,44.6,42.52,44.6,20.78,0,36.76-10.39,41.4-30.05h-24.78c-1.44,7.99-7.35,12.79-16.14,12.79-9.43,0-16.46-4.8-17.9-21.1h59.78c.32-3.04.48-5.75.48-7.99,0-22.7-14.07-43.32-41.24-43.32ZM571.96,161.3c2.08-12.63,8.31-18.22,17.26-18.22s14.86,6.23,16.3,18.22h-33.57Z"></path>
    <path class="cls-3" d="M660.5,191.99c-.16-2.24-.16-4.16-.16-7.83v-88.39h-25.1v88.87c0,5.91,0,10.07.32,14.23.64,11.19,7.67,15.82,19.66,15.82,5.59,0,10.23-.32,15.02-.8v-17.1c-7.51.32-9.27-.96-9.75-4.79Z"></path>
    <rect class="cls-3" x="672.81" y="128.05" width="25.1" height="85.19"></rect>
    <path class="cls-3" d="M685.28,95.12c-7.99,0-13.27,4.96-13.27,12.63s5.27,12.79,13.27,12.79,13.43-4.96,13.43-12.79-5.43-12.63-13.43-12.63Z"></path>
    <path class="cls-3" d="M759.28,125.81c-7.99,0-14.06,1.6-19.82,5.43l-7.03,10.23v-13.43h-25.1v85.19h25.1v-39.48c0-21.74,7.35-30.69,17.26-30.69s14.54,5.43,15.18,14.07c.32,4.32.32,8.63.32,11.83v44.28h25.1v-48.11c0-6.87-.16-11.51-.8-15.83-1.92-14.86-12.31-23.5-30.21-23.5Z"></path>
    <polygon class="cls-3" points="885.71 128.05 855.98 128.05 823.7 165.45 823.7 95.76 798.6 95.76 798.6 213.24 823.7 213.24 823.7 187.83 830.25 180.64 855.03 213.24 886.19 213.24 848.79 167.37 885.71 128.05"></polygon>
    <path class="cls-3" d="M926.07,160.74c-15.18-3.84-19.82-7.03-19.82-12.79,0-4.48,3.36-7.83,8.79-7.83,6.23,0,9.91,4,11.35,11.03h24.77c-2.08-15.5-13.91-27.01-34.53-27.01s-35.48,10.23-35.48,26.85c0,14.55,10.39,21.74,26.37,25.73,15.02,3.52,20.46,6.87,20.46,12.95,0,5.43-4.8,7.99-10.87,7.99-7.03,0-12.79-4.32-14.54-12.31h-24.78c2.24,19.18,17.42,28.45,39.16,28.45,19.98,0,36.12-8.31,36.12-26.05,0-15.98-10.55-22.86-27.01-27.01Z"></path>
  </g><text class="cls-6" transform="translate(462.94 261.79) scale(.57 1)"><tspan x="0" y="0"> </tspan></text><text class="cls-6" transform="translate(736.27 261.79) scale(.51 1)"><tspan x="0" y="0"> </tspan></text><g>
    <path class="cls-1" d="M200.38,243.22c-5.68-1.44-8.03-2.93-8.03-6.98s3.51-5.92,7.31-5.92c4.38,0,7.26,2.65,7.84,7.17h3.13c-.63-5.39-4.09-9.57-10.73-9.57-5.87,0-10.78,3.56-10.78,8.95s3.75,7.55,10.05,9.19c6.21,1.54,8.71,3.37,8.71,7.65,0,3.85-3.51,6.35-7.89,6.35-4.76,0-8.42-2.65-9.24-7.41h-3.17c.72,6.4,5.58,9.81,12.31,9.81,6.35,0,11.16-3.75,11.16-9.24s-3.56-8.18-10.68-10.01Z"></path>
    <polygon class="cls-1" points="225.57 246.44 242.36 246.44 242.36 243.94 225.57 243.94 225.57 231.05 243.61 231.05 243.61 228.59 222.59 228.59 222.59 261.78 244.1 261.78 244.1 259.33 225.57 259.33 225.57 246.44"></polygon>
    <path class="cls-1" d="M264.15,228.59l-12.27,33.19h3.17l4.28-12.17h13.23l4.33,12.17h3.22l-11.98-33.19h-3.99ZM260.2,247.11l5.87-16.11,5.63,16.11h-11.5Z"></path>
    <path class="cls-1" d="M306.28,259.28l-11.21-30.69h-4.86v33.19h2.98v-17.89c0-4.14,0-8.75-.1-12.6,1.25,3.8,2.93,8.47,4.43,12.51l6.78,17.99h3.75l6.73-17.94c1.54-4.09,3.22-8.75,4.52-12.6-.1,3.85-.1,8.47-.1,12.65v17.89h2.98v-33.19h-4.76l-11.16,30.69Z"></path>
    <polygon class="cls-1" points="338.35 228.59 335.37 228.59 335.37 261.78 356.87 261.78 356.87 259.33 338.35 259.33 338.35 228.59"></polygon>
    <polygon class="cls-1" points="370.19 246.44 386.98 246.44 386.98 243.94 370.19 243.94 370.19 231.05 388.23 231.05 388.23 228.59 367.21 228.59 367.21 261.78 388.71 261.78 388.71 259.33 370.19 259.33 370.19 246.44"></polygon>
    <path class="cls-1" d="M410.01,243.22c-5.68-1.44-8.03-2.93-8.03-6.98s3.51-5.92,7.31-5.92c4.38,0,7.26,2.65,7.84,7.17h3.13c-.63-5.39-4.09-9.57-10.73-9.57-5.87,0-10.78,3.56-10.78,8.95s3.75,7.55,10.05,9.19c6.21,1.54,8.71,3.37,8.71,7.65,0,3.85-3.51,6.35-7.89,6.35-4.76,0-8.42-2.65-9.24-7.41h-3.18c.72,6.4,5.58,9.81,12.31,9.81,6.35,0,11.16-3.75,11.16-9.24s-3.56-8.18-10.68-10.01Z"></path>
    <path class="cls-1" d="M442.52,243.22c-5.68-1.44-8.03-2.93-8.03-6.98s3.51-5.92,7.31-5.92c4.38,0,7.26,2.65,7.84,7.17h3.13c-.63-5.39-4.09-9.57-10.73-9.57-5.87,0-10.78,3.56-10.78,8.95s3.75,7.55,10.05,9.19c6.2,1.54,8.71,3.37,8.71,7.65,0,3.85-3.51,6.35-7.89,6.35-4.76,0-8.42-2.65-9.24-7.41h-3.18c.72,6.4,5.58,9.81,12.31,9.81,6.35,0,11.16-3.75,11.16-9.24s-3.56-8.18-10.68-10.01Z"></path>
    <rect class="cls-1" x="479.36" y="228.59" width="2.98" height="33.19"></rect>
    <path class="cls-1" d="M517.22,228.59v17.13c0,4.14.05,9.04.14,13.18l-17.32-30.31h-4.52v33.19h2.98v-17.13c0-4.14-.05-9.09-.14-13.18l17.27,30.31h4.57l-.05-33.19h-2.93Z"></path>
    <polygon class="cls-1" points="530.24 231.05 542.41 231.05 542.41 261.78 545.4 261.78 545.4 231.05 557.57 231.05 557.57 228.59 530.24 228.59 530.24 231.05"></polygon>
    <polygon class="cls-1" points="570.06 246.44 586.85 246.44 586.85 243.94 570.06 243.94 570.06 231.05 588.1 231.05 588.1 228.59 567.08 228.59 567.08 261.78 588.58 261.78 588.58 259.33 570.06 259.33 570.06 246.44"></polygon>
    <path class="cls-1" d="M615.8,245.28c3.46-.87,6.25-3.51,6.25-7.89,0-5.29-3.27-7.98-8.18-8.61-1.54-.19-2.84-.19-4.52-.19h-9.77v33.19h2.98v-15.01h6.78c.77,0,1.73,0,2.6.05,3.56.19,5,2.93,5.44,6.45.48,4.33,1.06,6.4,1.88,8.52h3.32c-1.15-1.88-1.73-4.28-2.21-8.85-.34-3.46-1.73-6.49-4.57-7.65ZM612.77,244.18c-1.11.1-1.92.1-3.37.1h-6.83v-13.18h6.78c1.59,0,2.65.05,3.8.19,3.61.53,5.68,2.45,5.68,6.35s-2.41,6.25-6.06,6.54Z"></path>
    <path class="cls-1" d="M655,228.59v17.13c0,4.14.05,9.04.14,13.18l-17.32-30.31h-4.52v33.19h2.98v-17.13c0-4.14-.05-9.09-.14-13.18l17.27,30.31h4.57l-.05-33.19h-2.94Z"></path>
    <polygon class="cls-1" points="674.18 246.44 690.97 246.44 690.97 243.94 674.18 243.94 674.18 231.05 692.22 231.05 692.22 228.59 671.2 228.59 671.2 261.78 692.71 261.78 692.71 259.33 674.18 259.33 674.18 246.44"></polygon>
    <polygon class="cls-1" points="700.54 231.05 712.71 231.05 712.71 261.78 715.69 261.78 715.69 231.05 727.86 231.05 727.86 228.59 700.54 228.59 700.54 231.05"></polygon>
    <path class="cls-1" d="M761.04,228.59l-12.27,33.19h3.18l4.28-12.17h13.23l4.33,12.17h3.22l-11.98-33.19h-3.99ZM757.1,247.11l5.87-16.11,5.63,16.11h-11.5Z"></path>
    <path class="cls-1" d="M800,230.32c5.92,0,9.24,3.56,10.25,8.61l.1.48h2.98l-.05-.48c-.87-6.3-5.15-11.02-13.13-11.02-9.09,0-15.44,7.22-15.44,17.41s5.68,17.13,14.77,17.13c8.47,0,12.8-5.1,13.66-11.21l.05-.48h-2.98l-.1.48c-1.01,5.1-4.28,8.8-10.44,8.8-6.74,0-11.64-5.63-11.64-14.86s5.15-14.86,11.98-14.86Z"></path>
    <path class="cls-1" d="M838.04,230.32c5.92,0,9.24,3.56,10.25,8.61l.1.48h2.98l-.05-.48c-.87-6.3-5.15-11.02-13.13-11.02-9.09,0-15.44,7.22-15.44,17.41s5.68,17.13,14.77,17.13c8.47,0,12.79-5.1,13.66-11.21l.05-.48h-2.98l-.1.48c-1.01,5.1-4.28,8.8-10.44,8.8-6.74,0-11.64-5.63-11.64-14.86s5.15-14.86,11.98-14.86Z"></path>
    <polygon class="cls-1" points="866.17 246.44 882.96 246.44 882.96 243.94 866.17 243.94 866.17 231.05 884.21 231.05 884.21 228.59 863.19 228.59 863.19 261.78 884.69 261.78 884.69 259.33 866.17 259.33 866.17 246.44"></polygon>
    <path class="cls-1" d="M905.99,243.22c-5.68-1.44-8.03-2.93-8.03-6.98s3.51-5.92,7.31-5.92c4.38,0,7.26,2.65,7.84,7.17h3.13c-.63-5.39-4.09-9.57-10.73-9.57-5.87,0-10.77,3.56-10.77,8.95s3.75,7.55,10.05,9.19c6.21,1.54,8.71,3.37,8.71,7.65,0,3.85-3.51,6.35-7.89,6.35-4.76,0-8.42-2.65-9.24-7.41h-3.18c.72,6.4,5.58,9.81,12.31,9.81,6.35,0,11.16-3.75,11.16-9.24s-3.56-8.18-10.68-10.01Z"></path>
    <path class="cls-1" d="M938.5,243.22c-5.68-1.44-8.03-2.93-8.03-6.98s3.51-5.92,7.31-5.92c4.38,0,7.26,2.65,7.84,7.17h3.13c-.62-5.39-4.09-9.57-10.73-9.57-5.87,0-10.77,3.56-10.77,8.95s3.75,7.55,10.05,9.19c6.21,1.54,8.71,3.37,8.71,7.65,0,3.85-3.51,6.35-7.89,6.35-4.76,0-8.42-2.65-9.24-7.41h-3.18c.72,6.4,5.58,9.81,12.31,9.81,6.35,0,11.16-3.75,11.16-9.24s-3.56-8.18-10.68-10.01Z"></path>
  </g></svg></g></g></svg>